<?xml version="1.0" standalone="no"?>
<!DOCTYPE svg PUBLIC "-//W3C//DTD SVG 20010904//EN"
 "http://www.w3.org/TR/2001/REC-SVG-20010904/DTD/svg10.dtd">
<svg version="1.0" xmlns="http://www.w3.org/2000/svg"
 width="1500.000000pt" height="1500.000000pt" viewBox="0 0 1500.000000 1500.000000"
 preserveAspectRatio="xMidYMid meet">
<metadata>
Created by potrace 1.14, written by Peter Selinger 2001-2017
</metadata>
<g transform="translate(0.000000,1500.000000) scale(0.100000,-0.100000)"
fill="#000000" stroke="none">
<path d="M4670 14990 c0 -5 -5 -10 -10 -10 -6 0 -16 -5 -23 -11 -10 -9 -36
-26 -96 -64 -9 -5 -37 -25 -63 -42 -26 -18 -51 -33 -56 -33 -6 0 -12 -7 -16
-15 -3 -8 -12 -15 -21 -15 -8 0 -15 -4 -15 -8 0 -5 -10 -14 -22 -21 -13 -6
-36 -20 -53 -31 -16 -11 -40 -25 -52 -31 -13 -7 -23 -16 -23 -21 0 -4 -7 -8
-15 -8 -8 0 -15 -4 -15 -10 0 -5 -7 -10 -15 -10 -8 0 -15 -4 -15 -10 0 -5 -7
-10 -15 -10 -8 0 -15 -4 -15 -10 0 -5 -6 -10 -13 -10 -7 0 -22 -8 -33 -18 -10
-9 -44 -33 -74 -52 -30 -19 -58 -39 -62 -45 -5 -6 -8 -6 -8 0 0 6 -5 2 -11 -7
-5 -10 -16 -18 -24 -18 -7 0 -15 -3 -17 -7 -1 -5 -95 -69 -208 -143 -113 -74
-207 -137 -210 -140 -3 -3 -30 -21 -60 -40 -30 -19 -57 -37 -60 -40 -3 -3 -30
-21 -60 -40 -30 -19 -56 -38 -58 -42 -2 -5 -8 -8 -13 -8 -7 0 -96 -57 -109
-70 -3 -3 -36 -26 -75 -50 -38 -25 -75 -49 -81 -55 -6 -5 -27 -19 -47 -30 -20
-11 -37 -23 -37 -28 0 -4 -4 -6 -9 -3 -5 3 -11 -1 -15 -9 -3 -8 -12 -15 -21
-15 -8 0 -15 -4 -15 -10 0 -5 -7 -10 -15 -10 -8 0 -15 -4 -15 -10 0 -5 -7 -10
-15 -10 -8 0 -15 -4 -15 -10 0 -5 -6 -10 -14 -10 -8 0 -16 -3 -18 -7 -3 -9
-96 -73 -104 -73 -3 0 -29 -18 -59 -40 -30 -22 -58 -40 -64 -40 -5 0 -11 -3
-13 -7 -3 -8 -95 -73 -103 -73 -3 0 -36 -22 -75 -50 -39 -27 -75 -50 -80 -50
-6 0 -10 -4 -10 -10 0 -5 -7 -10 -15 -10 -8 0 -15 -4 -15 -10 0 -5 -4 -10 -10
-10 -8 0 -108 -65 -137 -90 -7 -6 -13 -7 -13 -3 0 4 -5 0 -11 -9 -5 -10 -16
-18 -24 -18 -7 0 -15 -3 -17 -7 -2 -5 -61 -46 -133 -93 -71 -47 -132 -87 -135
-90 -3 -3 -36 -25 -75 -50 -38 -25 -72 -47 -75 -50 -13 -13 -181 -120 -189
-120 -5 0 -11 -6 -14 -13 -3 -8 -18 -20 -34 -28 -39 -20 -237 -152 -241 -161
-2 -5 -10 -8 -17 -8 -7 0 -15 -3 -17 -7 -5 -11 -97 -73 -108 -73 -6 0 -10 -4
-10 -10 0 -5 -7 -10 -15 -10 -8 0 -15 -4 -15 -10 0 -5 -6 -10 -14 -10 -8 0
-16 -3 -18 -7 -2 -5 -90 -65 -195 -136 l-193 -127 0 -1878 1 -1877 96 -65 c53
-36 101 -67 107 -69 6 -2 13 -7 16 -10 10 -12 161 -111 169 -111 5 0 11 -7 15
-15 3 -8 10 -15 17 -15 12 0 162 -101 167 -112 2 -5 8 -8 12 -8 12 0 224 -142
228 -152 2 -4 7 -8 12 -8 12 0 164 -101 168 -112 2 -4 8 -8 14 -8 6 0 39 -20
74 -45 34 -25 65 -45 69 -45 3 0 11 -4 18 -10 34 -28 104 -77 117 -82 8 -3 35
-20 58 -38 l44 -31 -124 -82 c-67 -44 -125 -84 -128 -88 -3 -3 -10 -8 -15 -10
-6 -2 -97 -62 -204 -134 -106 -71 -200 -135 -209 -140 -65 -39 -258 -171 -260
-177 -2 -4 -7 -8 -12 -8 -7 0 -185 -115 -215 -139 -6 -4 -44 -30 -85 -57 -41
-26 -81 -54 -88 -61 -7 -7 -18 -13 -23 -13 -6 0 -16 -6 -24 -13 -11 -12 -11
-16 4 -29 10 -9 22 -17 27 -19 15 -7 128 -83 142 -96 7 -7 17 -13 22 -13 5 0
15 -6 22 -13 7 -7 45 -32 83 -57 39 -25 75 -48 80 -53 6 -4 57 -39 115 -77 58
-38 110 -72 115 -77 6 -5 35 -24 65 -43 30 -19 57 -37 60 -40 8 -8 100 -70
104 -70 3 0 57 -36 121 -80 64 -44 120 -80 124 -80 4 0 16 -8 27 -18 11 -11
24 -21 29 -23 6 -2 63 -40 127 -83 107 -72 118 -82 119 -110 0 -17 2 -440 2
-940 l2 -909 25 -16 c14 -8 28 -20 32 -26 4 -5 8 -6 8 -2 0 4 10 -1 22 -13 12
-11 28 -20 35 -20 7 0 13 -4 13 -8 0 -5 12 -15 27 -23 16 -8 30 -17 33 -20 10
-11 132 -89 140 -89 5 0 10 -3 12 -7 5 -12 156 -113 168 -113 5 0 10 -4 10
-10 0 -5 5 -10 11 -10 6 0 17 -6 24 -13 34 -29 45 -37 45 -31 0 4 8 0 18 -10
28 -24 303 -206 313 -206 5 0 9 -4 9 -9 0 -5 16 -16 35 -25 19 -9 35 -21 35
-25 0 -5 8 -11 18 -15 18 -6 53 -27 62 -37 12 -13 99 -69 108 -69 6 0 12 -3
14 -8 4 -10 186 -132 197 -132 5 0 11 -3 13 -8 2 -4 28 -23 58 -42 30 -19 60
-40 65 -46 6 -6 26 -20 45 -30 19 -11 37 -22 40 -25 3 -3 39 -28 80 -54 41
-27 80 -53 85 -57 25 -20 87 -58 95 -58 6 0 10 -4 10 -8 0 -4 29 -25 65 -47
36 -22 65 -43 65 -46 0 -4 8 -9 18 -13 17 -5 53 -26 62 -36 13 -14 131 -90
140 -90 5 0 10 -4 10 -10 0 -5 7 -10 15 -10 8 0 15 -4 15 -8 0 -5 12 -15 28
-23 15 -8 29 -17 32 -20 3 -3 39 -28 80 -54 41 -26 77 -52 78 -56 2 -5 8 -9
14 -9 5 0 38 -20 72 -45 35 -25 69 -45 75 -45 6 0 11 -4 11 -9 0 -5 8 -12 18
-15 10 -4 27 -14 38 -24 10 -9 31 -23 47 -31 26 -14 30 -13 88 27 33 23 64 42
69 42 5 0 10 3 12 8 3 7 114 82 122 82 3 0 17 11 32 25 15 14 33 25 40 25 7 0
14 3 16 8 2 4 37 29 78 57 41 27 77 53 78 57 2 5 10 8 17 8 8 0 20 6 27 13 7
7 31 24 53 37 22 13 42 27 45 30 3 4 50 35 105 70 55 36 102 67 105 70 3 4 35
26 73 49 37 24 67 48 67 54 0 6 3 7 6 4 4 -4 42 18 86 48 44 30 83 55 88 55 5
0 10 3 12 8 3 8 137 98 183 124 16 9 29 19 28 22 -2 3 -3 9 -2 14 3 27 1 3734
-2 3736 -2 2 -161 108 -354 236 -192 128 -351 237 -353 242 -2 4 -8 8 -14 8
-12 0 -102 61 -106 72 -2 4 -8 8 -14 8 -11 0 -191 121 -196 132 -2 5 -8 8 -13
8 -12 0 -193 121 -197 132 -2 4 -9 8 -16 8 -7 0 -21 8 -32 18 -10 9 -31 23
-46 31 -15 8 -36 22 -45 31 -17 15 -18 69 -17 941 1 508 2 927 3 931 1 7 26
-7 96 -52 13 -8 118 -79 234 -157 116 -79 215 -143 220 -143 5 0 11 -4 13 -8
3 -8 592 -403 612 -411 6 -2 19 -13 29 -24 9 -11 17 -17 17 -14 0 3 137 -86
305 -198 168 -113 310 -205 314 -205 5 0 11 -4 13 -8 4 -12 546 -372 559 -372
6 0 7 -4 4 -10 -3 -5 -1 -10 6 -10 7 0 66 -36 130 -80 65 -44 122 -80 128 -80
5 0 11 -4 13 -8 2 -4 28 -24 58 -44 50 -34 56 -35 80 -22 36 20 64 38 70 44 3
3 43 30 89 60 46 30 89 59 95 65 6 5 23 16 39 24 15 8 27 18 27 23 0 4 5 8 11
8 12 0 162 101 167 113 2 4 8 7 13 7 10 0 186 116 207 137 7 7 20 13 28 13 8
0 14 3 14 8 0 4 9 12 19 17 11 6 100 64 198 130 98 66 182 122 188 124 5 2 12
7 15 11 5 6 115 80 187 125 17 11 79 53 137 93 58 39 110 72 115 72 5 0 11 3
13 8 2 4 125 88 273 186 149 99 272 183 273 188 2 4 9 8 16 8 7 0 21 8 32 18
10 9 31 23 47 31 15 8 27 18 27 23 0 4 4 8 9 8 8 0 428 275 458 300 7 5 15 10
18 10 3 0 5 -421 5 -935 l0 -934 -48 -33 c-26 -18 -49 -31 -51 -29 -2 1 -7 -1
-10 -6 -8 -11 -187 -133 -196 -133 -3 0 -13 -6 -20 -12 -26 -24 -41 -35 -50
-39 -14 -6 -219 -142 -225 -149 -3 -3 -43 -30 -90 -60 -47 -29 -86 -57 -88
-62 -2 -4 -8 -8 -13 -8 -9 0 -94 -56 -117 -77 -7 -7 -17 -13 -21 -13 -7 0 -23
-12 -68 -50 -7 -6 -16 -10 -20 -10 -5 0 -15 -6 -24 -13 -8 -8 -31 -22 -50 -33
-19 -10 -38 -25 -42 -31 -4 -7 -14 -13 -21 -13 -7 0 -21 -9 -31 -20 -10 -11
-22 -20 -26 -20 -4 0 -50 -29 -101 -64 l-93 -63 0 -1872 c-1 -1029 2 -1875 5
-1880 3 -4 52 -39 110 -76 58 -38 107 -73 108 -77 2 -4 7 -8 12 -8 5 0 43 -24
85 -53 43 -28 91 -60 109 -71 17 -10 33 -22 34 -27 2 -5 8 -9 12 -9 11 0 164
-102 168 -112 2 -5 9 -8 16 -8 7 0 21 -8 32 -18 11 -11 24 -21 29 -23 6 -2 63
-40 129 -84 65 -44 126 -84 135 -90 9 -5 30 -20 48 -32 17 -13 35 -23 40 -23
5 0 15 -9 23 -20 8 -11 19 -20 24 -20 11 0 120 -72 124 -82 2 -5 8 -8 14 -8
10 0 87 -51 123 -81 19 -17 23 -15 100 36 44 29 85 58 92 64 7 6 17 11 22 11
5 0 16 6 23 13 7 7 90 63 183 125 94 61 175 115 180 120 6 4 44 30 85 57 41
28 78 54 82 60 5 7 8 7 8 0 0 -6 3 -6 8 0 4 6 95 69 202 140 107 71 197 132
200 135 3 4 10 9 16 11 19 7 459 303 462 311 2 4 8 8 12 8 11 0 402 261 412
275 5 6 8 6 8 0 0 -5 5 -2 11 8 5 9 14 17 20 17 5 0 45 25 89 55 44 30 84 55
89 55 5 0 11 3 13 8 4 10 186 132 197 132 5 0 11 4 13 8 2 5 71 53 153 107 83
54 152 100 154 102 7 5 5 69 -3 81 -4 7 -4 12 1 12 4 0 8 14 8 30 1 17 -3 30
-8 30 -4 0 -5 6 0 13 11 17 11 60 0 75 -5 6 -6 12 -1 12 5 0 9 14 9 30 1 17
-3 30 -8 30 -6 0 -6 5 0 13 10 15 10 97 0 115 -5 6 -4 12 1 12 10 0 9 30 -2
48 -4 6 -3 12 2 12 10 0 9 30 -2 48 -4 6 -3 12 2 12 10 0 9 30 -2 48 -4 6 -3
12 3 12 9 0 7 37 -3 48 -3 2 -1 12 4 21 5 10 5 23 0 31 -5 8 -5 21 0 30 5 9 5
22 0 30 -5 8 -5 21 0 30 5 9 5 22 0 30 -5 8 -5 21 0 30 5 9 5 22 0 30 -5 8 -5
21 0 30 5 9 5 22 0 30 -4 7 -4 23 0 35 5 14 4 27 -3 34 -6 6 -7 11 -1 11 5 0
9 14 9 30 1 17 -3 30 -8 30 -4 0 -5 6 0 13 11 17 11 60 0 74 -5 7 -6 13 -1 13
5 0 9 14 9 30 1 17 -3 30 -8 30 -6 0 -6 5 0 13 5 6 8 26 6 42 -4 42 -4 45 0
93 2 23 -1 42 -6 42 -4 0 -5 6 -1 12 11 18 12 48 2 48 -5 0 -6 6 -2 12 11 18
12 48 2 48 -5 0 -6 6 -2 12 11 18 12 48 2 48 -5 0 -6 6 -2 12 11 18 12 48 2
48 -5 0 -6 6 -2 12 11 18 12 48 2 48 -5 0 -6 6 -2 12 12 19 12 48 0 48 -7 0
-7 3 -1 8 6 4 10 16 10 27 0 19 15 35 57 60 45 27 382 252 400 267 11 10 29
20 39 23 11 4 19 10 19 15 0 5 9 12 20 15 11 3 26 12 32 18 7 7 45 32 83 57
39 24 72 47 75 51 3 3 16 12 29 19 14 7 30 17 35 22 27 22 158 108 166 108 5
0 10 3 12 8 3 6 142 102 161 111 5 2 59 38 121 80 62 43 120 80 129 84 10 4
17 11 17 16 0 5 -60 49 -132 97 -73 49 -134 92 -136 96 -2 5 -7 8 -12 8 -7 0
-699 456 -727 480 -7 5 -16 10 -22 10 -5 0 -11 4 -13 8 -1 5 -81 60 -175 122
-95 63 -173 118 -173 121 0 4 24 22 53 40 28 19 53 37 55 41 2 5 8 8 13 8 4 0
58 34 118 75 61 41 115 75 121 75 5 0 10 4 10 8 0 4 15 16 33 27 17 10 55 36
83 56 29 21 54 35 58 32 3 -4 6 -1 6 5 0 7 6 12 14 12 8 0 16 4 18 8 2 5 63
48 137 96 74 49 141 94 148 101 7 8 22 17 33 20 11 3 20 11 20 16 0 5 4 9 10
9 5 0 93 56 196 125 102 69 188 125 190 125 3 0 17 11 31 24 15 14 30 23 35
20 4 -3 9 -2 9 3 1 4 3 853 3 1885 2 1681 0 1878 -14 1887 -107 74 -163 111
-169 111 -4 0 -16 9 -26 20 -10 11 -24 20 -32 20 -7 0 -13 5 -13 10 0 6 -6 10
-13 10 -7 0 -23 9 -35 20 -12 11 -24 20 -27 20 -4 0 -12 6 -20 13 -7 6 -41 30
-76 52 -79 51 -93 60 -178 118 -38 26 -74 47 -80 47 -6 0 -11 3 -11 8 0 4 -21
20 -48 37 -26 16 -49 32 -52 35 -3 3 -111 75 -240 160 -129 85 -237 157 -240
160 -11 11 -70 50 -75 50 -6 0 -64 39 -75 50 -6 7 -92 63 -105 70 -5 3 -44 28
-85 55 -41 28 -77 52 -80 55 -9 9 -69 50 -73 50 -3 0 -51 31 -108 70 -57 38
-112 76 -123 82 -10 7 -36 25 -57 41 -21 15 -42 27 -45 27 -3 0 -23 14 -44 30
-21 17 -42 30 -46 30 -5 0 -21 10 -36 23 -22 18 -102 72 -197 132 -8 6 -39 27
-68 48 -29 20 -56 37 -61 37 -5 0 -17 9 -27 20 -10 11 -24 20 -32 20 -7 0 -13
5 -13 10 0 6 -4 10 -8 10 -9 0 -353 228 -362 240 -3 4 -12 10 -20 14 -28 13
-111 66 -120 76 -3 3 -22 16 -43 29 -21 13 -44 29 -52 37 -8 8 -18 15 -22 16
-4 1 -39 22 -77 47 -37 25 -76 51 -85 56 -9 6 -18 12 -21 15 -3 4 -34 25 -70
47 -36 23 -70 46 -75 50 -6 4 -109 73 -230 153 -121 80 -226 151 -233 158 -7
6 -17 12 -22 12 -5 0 -15 6 -22 13 -7 7 -40 29 -72 50 -50 31 -62 35 -75 24
-9 -7 -28 -19 -43 -27 -16 -7 -28 -17 -28 -22 0 -4 -7 -8 -15 -8 -8 0 -15 -4
-15 -9 0 -5 -8 -11 -17 -15 -20 -6 -50 -25 -69 -41 -6 -6 -42 -31 -80 -55 -38
-25 -71 -47 -74 -51 -3 -3 -9 -8 -15 -10 -5 -2 -83 -53 -173 -114 -90 -60
-171 -114 -180 -120 -9 -5 -19 -12 -22 -15 -3 -3 -17 -11 -32 -19 -16 -8 -28
-18 -28 -23 0 -4 -5 -8 -10 -8 -6 0 -35 -18 -65 -40 -30 -22 -55 -37 -55 -33
0 4 -4 3 -8 -3 -6 -8 -108 -78 -234 -159 -31 -20 -74 -50 -125 -87 -29 -21
-53 -35 -53 -31 0 4 -5 0 -11 -9 -12 -22 -57 -24 -65 -3 -4 8 -9 13 -13 11 -4
-3 -29 12 -57 32 -27 20 -61 43 -77 51 -15 8 -27 18 -27 23 0 4 -6 8 -13 8 -7
0 -22 8 -33 18 -10 9 -31 23 -46 31 -16 8 -28 18 -28 23 0 4 -5 8 -12 8 -6 0
-27 12 -47 28 -19 15 -40 29 -46 32 -5 3 -90 59 -188 125 -99 66 -186 125
-195 130 -10 6 -20 15 -24 20 -5 7 -8 7 -8 0 0 -6 -3 -6 -8 0 -4 6 -41 33 -82
60 -41 27 -81 55 -88 62 -6 6 -21 15 -32 18 -11 3 -20 11 -20 16 0 5 -6 9 -13
9 -7 0 -22 8 -33 18 -11 11 -24 21 -29 23 -21 9 -160 103 -167 113 -4 6 -8 7
-8 3 0 -4 -10 1 -22 13 -12 11 -27 20 -34 20 -7 0 -14 5 -16 12 -4 11 -289
-169 -303 -192 -3 -6 -11 -8 -16 -5 -5 4 -9 1 -9 -4 0 -6 -6 -11 -14 -11 -8 0
-16 -3 -18 -7 -4 -11 -157 -113 -168 -113 -6 0 -10 -4 -10 -10 0 -5 -6 -10
-14 -10 -8 0 -16 -4 -18 -8 -3 -8 -203 -143 -223 -151 -5 -2 -12 -7 -15 -10
-6 -8 -451 -305 -465 -310 -5 -2 -12 -7 -15 -10 -3 -3 -31 -23 -62 -45 -32
-21 -58 -41 -58 -45 0 -5 803 -544 858 -576 9 -5 19 -12 22 -15 3 -3 119 -81
258 -173 148 -98 260 -166 268 -163 8 3 41 24 74 46 32 22 64 40 69 40 6 0 11
4 11 8 0 4 22 21 50 37 27 17 50 33 50 38 0 4 4 7 8 7 10 0 197 124 225 148 9
8 17 11 17 6 0 -5 4 -4 8 2 6 9 213 152 260 179 55 33 388 258 393 266 3 6 8
10 10 8 4 -2 161 99 169 109 3 4 16 13 28 20 21 12 28 11 60 -11 260 -172 344
-227 352 -227 6 0 10 -4 10 -8 0 -5 16 -17 35 -28 19 -10 35 -22 35 -26 0 -5
4 -8 10 -8 11 0 103 -62 108 -72 2 -5 8 -8 13 -8 10 0 103 -62 107 -72 2 -5 7
-8 11 -8 11 0 385 -250 392 -262 3 -5 9 -9 13 -9 3 1 182 -116 397 -259 215
-143 395 -260 400 -260 6 0 7 -4 4 -10 -3 -5 -1 -10 5 -10 7 0 91 -53 188
-118 98 -65 197 -132 222 -149 25 -16 180 -119 345 -229 165 -109 302 -202
303 -206 2 -5 7 -8 12 -8 7 0 202 -128 228 -150 6 -6 12 -7 12 -3 0 4 4 3 8
-3 9 -14 639 -434 651 -434 5 0 11 -4 13 -8 2 -5 69 -53 151 -107 81 -53 152
-106 158 -117 9 -16 8 -19 -2 -13 -8 5 -10 4 -5 -4 11 -17 14 -101 4 -101 -5
0 -6 -5 -3 -11 11 -17 13 -59 2 -59 -6 0 -6 -5 -1 -12 11 -16 11 -39 1 -55 -5
-7 -5 -13 0 -13 4 0 8 -11 8 -25 0 -14 -4 -25 -8 -25 -5 0 -5 -6 -1 -12 10
-16 13 -48 5 -48 -8 0 -5 -69 3 -77 3 -3 1 -14 -5 -24 -5 -11 -6 -19 -1 -19
10 0 9 -30 -2 -48 -4 -6 -3 -12 2 -12 10 0 9 -30 -2 -48 -4 -6 -3 -12 2 -12
10 0 9 -30 -2 -48 -4 -6 -3 -12 2 -12 10 0 9 -30 -2 -48 -4 -6 -3 -12 2 -12
10 0 9 -30 -2 -48 -4 -6 -3 -12 2 -12 10 0 9 -30 -2 -48 -4 -6 -3 -12 2 -12
10 0 9 -30 -2 -48 -4 -6 -3 -12 2 -12 10 0 9 -30 -2 -48 -4 -6 -4 -12 1 -12 4
0 8 -22 8 -50 0 -27 -4 -50 -8 -50 -5 0 -5 -5 -2 -11 11 -17 13 -59 2 -59 -6
0 -6 -5 -1 -12 11 -16 11 -39 1 -55 -5 -7 -5 -13 0 -13 4 0 8 -11 8 -25 0 -14
-4 -25 -8 -25 -5 0 -5 -6 -1 -12 11 -18 12 -48 2 -48 -5 0 -6 -6 -2 -12 11
-18 12 -48 2 -48 -5 0 -6 -5 -3 -11 11 -17 13 -59 2 -59 -6 0 -6 -5 -1 -12 11
-16 11 -39 1 -55 -5 -7 -5 -13 0 -13 4 0 8 -11 8 -25 0 -14 -4 -25 -8 -25 -5
0 -5 -6 -1 -12 10 -15 13 -48 5 -48 -6 0 -5 -44 2 -100 2 -14 -1 -31 -6 -37
-6 -8 -6 -13 0 -13 16 0 6 -52 -11 -62 -8 -5 -21 -14 -28 -21 -7 -7 -29 -22
-48 -33 -19 -10 -37 -22 -40 -25 -10 -12 -221 -149 -230 -149 -4 0 -10 -4 -12
-8 -1 -5 -43 -36 -93 -68 -49 -32 -91 -62 -93 -66 -2 -5 -8 -8 -13 -8 -11 0
-106 -62 -130 -85 -9 -8 -20 -15 -25 -15 -6 0 -19 -8 -30 -17 -10 -10 -31 -24
-46 -32 -15 -8 -37 -22 -47 -33 -11 -10 -24 -18 -29 -18 -5 0 -15 -7 -22 -15
-7 -9 -27 -22 -45 -31 -18 -8 -42 -24 -54 -35 -11 -11 -21 -17 -21 -14 0 3 -6
1 -12 -5 -48 -40 -63 -50 -74 -50 -7 0 -14 -3 -16 -8 -5 -12 -278 -192 -279
-184 -6 36 -3 501 3 514 4 9 4 19 0 22 -10 6 -9 127 1 143 4 6 4 14 0 16 -5 3
-8 267 -8 587 l1 582 -73 49 c-40 27 -76 49 -79 48 -4 0 -10 3 -13 9 -3 5
-204 141 -446 302 -242 161 -441 297 -443 302 -2 4 -12 8 -22 8 -10 0 -20 4
-22 9 -2 5 -71 54 -155 110 l-152 101 -30 -18 c-17 -9 -31 -20 -31 -24 0 -5
-6 -8 -13 -8 -8 0 -22 -9 -32 -20 -10 -11 -21 -17 -26 -15 -4 3 -11 1 -14 -5
-4 -6 -147 -104 -318 -218 -172 -114 -314 -209 -317 -212 -3 -3 -36 -25 -75
-50 -38 -25 -72 -47 -75 -50 -3 -3 -60 -41 -127 -85 -68 -44 -123 -83 -123
-87 0 -5 -5 -8 -11 -8 -11 0 -357 -228 -391 -258 -10 -8 -18 -12 -18 -8 0 7
-14 -4 -51 -36 -10 -10 -21 -18 -24 -18 -9 0 -360 -234 -363 -242 -2 -5 -7 -8
-11 -8 -6 0 -145 -91 -351 -230 -159 -108 -284 -190 -286 -190 -2 0 -29 -18
-60 -40 -32 -22 -61 -40 -66 -40 -5 0 -24 11 -42 25 -18 14 -38 25 -44 25 -7
0 -12 5 -12 10 0 6 -6 10 -14 10 -8 0 -16 3 -18 8 -1 4 -145 101 -318 216
-173 115 -318 214 -322 220 -5 7 -8 7 -8 1 0 -7 -3 -7 -8 0 -4 6 -15 15 -24
20 -58 35 -434 290 -440 299 -5 7 -8 7 -8 1 0 -7 -3 -7 -8 0 -10 14 -101 75
-111 75 -5 0 -11 3 -13 8 -3 8 -565 384 -588 393 -9 4 -22 14 -29 23 -7 9 -19
16 -26 16 -8 0 -15 4 -17 8 -1 5 -37 30 -78 56 -41 27 -78 54 -82 60 -4 6 -8
7 -8 1 0 -7 -3 -6 -8 0 -7 10 -448 306 -467 314 -5 2 -12 7 -15 10 -3 4 -27
21 -53 38 l-48 31 -42 -23 c-23 -13 -51 -32 -62 -43 -11 -10 -27 -21 -35 -25
-24 -12 -51 -29 -120 -77 -36 -24 -67 -43 -69 -41 -2 1 -7 -1 -10 -6 -9 -14
-159 -113 -171 -113 -5 0 -10 -5 -10 -10 0 -6 -8 -14 -17 -18 -17 -7 -163
-101 -173 -112 -10 -11 -55 -37 -64 -38 -5 0 -12 -4 -15 -9 -8 -13 -322 -223
-333 -223 -4 0 -8 -4 -8 -9 0 -5 -13 -14 -30 -21 -16 -7 -30 -16 -30 -21 0 -4
-10 -11 -22 -15 -12 -3 -33 -17 -47 -30 -14 -13 -31 -24 -38 -24 -7 0 -13 -4
-13 -8 0 -4 -22 -21 -50 -37 -56 -33 -52 -17 -52 -187 0 -53 3 -101 6 -107 4
-5 2 -13 -4 -16 -8 -5 -8 -11 -1 -19 6 -7 8 -16 4 -20 -10 -9 -10 -156 0 -156
5 0 5 -5 1 -11 -8 -14 -9 -244 0 -258 4 -6 2 -11 -4 -11 -7 0 -8 -6 -1 -19 6
-10 7 -21 4 -25 -9 -9 -10 -156 -1 -156 4 0 5 -7 1 -16 -10 -27 -9 -884 2
-887 5 -2 5 -6 -1 -10 -10 -6 -176 98 -182 115 -2 4 -8 8 -14 8 -5 0 -52 29
-104 65 -52 36 -99 65 -103 65 -5 0 -11 4 -13 8 -3 8 -95 72 -104 72 -3 0 -10
4 -17 10 -45 37 -107 79 -107 72 0 -4 -5 1 -11 11 -5 9 -14 17 -20 17 -8 0
-142 86 -174 112 -5 5 -46 31 -90 59 -44 29 -82 54 -85 58 -3 3 -17 12 -32 20
-16 8 -28 18 -28 23 0 4 -5 8 -11 8 -12 0 -222 141 -227 153 -2 4 -9 7 -15 7
-7 0 -25 11 -42 24 l-30 24 0 937 -1 936 36 21 c19 12 37 25 40 29 3 3 30 21
60 40 30 18 57 36 60 39 3 3 32 23 65 45 33 21 63 43 66 48 3 5 9 7 12 5 4 -1
14 4 24 12 10 8 43 31 73 50 30 19 57 37 60 40 3 3 25 18 50 34 68 44 134 89
140 96 3 3 17 11 32 19 15 8 38 24 50 35 12 12 23 19 23 17 0 -4 114 68 125
79 11 11 70 50 75 50 3 0 30 18 60 40 30 22 58 40 64 40 5 0 11 3 13 8 3 6 51
40 109 77 9 5 36 23 60 40 54 36 63 42 123 80 27 17 53 35 60 40 6 6 29 22 51
35 22 13 42 27 45 30 4 5 280 189 322 215 56 35 266 175 280 188 9 8 19 13 22
10 3 -4 6 -1 6 5 0 7 4 12 10 12 5 0 18 7 27 14 10 8 131 89 268 180 138 91
255 169 261 174 5 5 21 15 35 22 13 7 28 19 32 26 4 8 14 14 22 14 7 0 20 6
27 13 22 20 169 117 179 117 5 0 9 5 9 11 0 5 14 15 30 20 17 6 30 15 30 19 0
5 9 12 20 15 11 3 26 12 33 18 23 22 198 137 208 137 5 0 9 3 9 8 0 4 20 18
45 32 25 14 45 27 45 31 0 3 16 14 35 25 19 10 35 22 35 26 0 5 6 8 13 8 8 0
24 9 37 20 13 11 27 20 31 20 4 0 14 6 21 13 7 7 47 35 88 61 41 27 99 65 127
85 29 20 64 42 78 49 14 7 25 18 25 24 0 6 3 9 6 5 4 -3 12 -1 20 6 32 29 44
37 53 37 5 0 20 9 33 20 12 11 45 34 71 51 l48 32 -38 25 c-21 14 -42 30 -48
34 -5 5 -39 27 -75 49 -36 23 -66 45 -68 50 -2 5 -8 9 -13 9 -11 0 -193 119
-221 144 -10 9 -20 16 -23 16 -8 0 -790 524 -793 532 -2 4 -8 8 -13 8 -5 0
-33 16 -62 35 -54 37 -67 41 -67 25z m-1370 -8446 c0 4 15 -3 34 -18 19 -14
39 -26 45 -26 6 0 11 -4 11 -8 0 -5 16 -17 35 -28 19 -10 35 -22 35 -26 0 -5
4 -8 9 -8 11 0 159 -97 179 -117 7 -7 18 -13 23 -13 9 0 21 -8 53 -37 8 -7 16
-9 20 -6 3 4 6 2 6 -3 0 -5 23 -23 50 -39 28 -16 50 -33 50 -37 0 -4 6 -8 13
-8 7 0 22 -8 33 -18 11 -11 24 -21 29 -23 22 -9 160 -103 163 -111 2 -4 10 -8
18 -8 8 0 14 -4 14 -10 0 -5 5 -10 11 -10 9 0 97 -55 109 -69 3 -3 17 -12 33
-20 15 -8 27 -18 27 -23 0 -4 7 -8 15 -8 8 0 15 -5 15 -11 0 -5 4 -8 9 -5 5 4
11 3 13 -2 1 -4 37 -30 78 -57 41 -27 77 -53 78 -57 2 -4 7 -8 12 -8 8 0 96
-56 140 -89 l25 -19 0 -928 c0 -635 -3 -928 -10 -931 -6 -2 -20 5 -32 16 -11
11 -24 17 -27 14 -3 -4 -6 -1 -6 5 0 7 -5 12 -10 12 -6 0 -16 5 -23 10 -27 23
-219 150 -227 150 -4 0 -10 3 -12 8 -1 4 -43 34 -93 67 -49 33 -92 63 -93 68
-2 4 -8 5 -13 1 -5 -3 -9 0 -9 5 0 6 -6 11 -14 11 -8 0 -16 3 -18 8 -3 7 -444
304 -463 311 -5 2 -12 7 -15 10 -11 13 -70 51 -79 51 -5 0 -11 3 -13 8 -1 4
-50 38 -108 76 -58 39 -108 74 -112 80 -5 7 -8 7 -8 1 0 -5 -6 -1 -12 9 -8 15
-14 165 -7 202 1 5 0 11 -1 14 -2 6 -2 121 0 135 1 6 1 33 0 60 -1 67 -1 262
1 272 1 4 0 10 -1 13 -2 6 -2 121 0 135 1 6 1 33 0 60 -1 67 -1 262 1 272 1 4
0 10 -1 13 -4 12 -3 131 2 135 3 3 2 20 -1 37 -4 17 -4 58 -1 90 3 32 4 61 1
63 -4 4 -5 109 -1 128 2 10 2 106 0 112 -3 6 -3 28 -1 93 1 34 4 43 11 32 5
-8 10 -11 10 -6z m8415 -926 l0 -930 -130 -86 c-71 -48 -134 -90 -140 -94 -38
-30 -748 -498 -755 -498 -6 0 -10 -4 -10 -8 0 -4 -22 -21 -50 -37 -27 -17 -50
-33 -50 -37 0 -5 -7 -8 -15 -8 -8 0 -15 -4 -15 -10 0 -5 -5 -10 -10 -10 -12 0
-71 -40 -82 -55 -5 -7 -8 -7 -8 0 0 6 -3 6 -8 0 -4 -6 -35 -30 -69 -53 l-63
-42 0 937 0 938 55 38 c31 20 60 37 65 37 6 0 10 5 10 10 0 6 6 10 14 10 8 0
16 3 18 8 2 4 30 25 63 47 33 22 62 43 63 48 2 4 8 7 14 7 6 0 26 11 44 25 18
14 37 25 42 25 6 0 12 3 14 8 4 10 187 132 198 132 5 0 10 3 12 8 4 10 217
152 228 152 5 0 10 4 12 8 3 8 232 163 253 171 6 2 12 7 15 11 10 13 99 70
109 70 6 0 11 5 11 10 0 6 4 10 10 10 5 0 18 7 27 15 40 32 118 82 123 78 3
-3 5 -423 5 -935z"/>
<path d="M7405 1815 c-44 -29 -85 -58 -92 -64 -7 -6 -15 -11 -18 -11 -3 0 -30
-18 -60 -40 -30 -22 -56 -40 -59 -40 -3 0 -38 -22 -78 -50 -88 -60 -81 -56
-196 -133 -52 -34 -101 -66 -110 -72 -10 -5 -19 -13 -22 -16 -3 -3 -20 -14
-37 -23 -18 -9 -33 -21 -33 -27 0 -6 -4 -7 -10 -4 -5 3 -10 1 -10 -4 0 -6 -5
-11 -10 -11 -9 0 -65 -35 -80 -50 -13 -13 -91 -60 -100 -60 -5 0 -10 -5 -10
-10 0 -6 -8 -14 -17 -17 -10 -4 -40 -23 -68 -43 -27 -20 -54 -39 -60 -41 -15
-6 -229 -150 -238 -160 -4 -5 -5 -7 -1 -5 3 2 17 -7 31 -20 14 -13 32 -24 39
-24 8 0 14 -3 14 -8 0 -4 26 -23 58 -41 31 -19 61 -40 65 -48 4 -7 12 -13 17
-13 5 0 85 -52 179 -115 93 -63 174 -115 180 -115 5 0 11 -4 13 -8 4 -11 124
-92 137 -92 5 0 11 -4 13 -8 4 -11 94 -72 106 -72 6 0 12 -4 14 -8 4 -11 156
-112 167 -112 5 0 12 -7 15 -16 4 -9 9 -14 12 -11 4 3 12 1 20 -6 29 -26 43
-37 48 -37 3 0 48 -29 100 -65 52 -36 100 -65 106 -65 5 0 10 -4 10 -8 0 -5
12 -15 28 -23 15 -7 30 -15 33 -16 3 -2 18 8 34 21 16 14 31 23 34 21 2 -3 9
1 15 8 6 8 58 44 116 82 58 38 108 73 112 79 5 7 8 7 8 1 0 -5 5 -3 10 5 5 8
13 15 17 15 10 0 106 65 114 78 3 4 14 9 23 11 10 1 21 7 24 12 4 6 189 131
412 279 223 148 407 273 408 277 2 4 9 8 15 8 7 0 22 8 35 18 l23 18 -33 24
c-73 54 -159 110 -168 110 -6 0 -10 5 -10 10 0 6 -6 10 -14 10 -8 0 -16 4 -18
8 -1 4 -24 21 -49 37 -26 17 -80 52 -120 80 -41 27 -78 52 -84 54 -5 2 -33 22
-61 43 -28 21 -55 38 -59 38 -5 0 -17 7 -27 17 -10 9 -27 21 -37 27 -11 6 -52
34 -92 61 -41 28 -81 55 -90 60 -36 21 -231 151 -242 160 -7 6 -30 22 -52 35
-22 13 -42 26 -45 29 -13 14 -70 51 -80 51 -5 0 -10 4 -10 9 0 5 -13 14 -30
21 -16 7 -30 16 -30 20 0 7 -46 30 -58 29 -4 0 -43 -24 -87 -54z"/>
</g>
</svg>
